<?xml version="1.0" encoding="utf-8"?>
<!-- Generator: Adobe Illustrator 21.0.0, SVG Export Plug-In . SVG Version: 6.00 Build 0)  -->
<svg version="1.1" id="Layer_1" xmlns="http://www.w3.org/2000/svg" xmlns:xlink="http://www.w3.org/1999/xlink" x="0px" y="0px"
	 viewBox="0 0 50 50" style="enable-background:new 0 0 50 50;" xml:space="preserve">
<style type="text/css">
	.st0{fill-rule:evenodd;clip-rule:evenodd;fill:#FFFFFF;}
</style>
<g>
	<g>
		<path class="st0" d="M48.3,12.8h-11c-1,0-1.7,0.8-1.7,1.8v29.9c0,1,0.8,1.8,1.7,1.8h11c1,0,1.7-0.8,1.7-1.8V14.5
			C50,13.6,49.2,12.8,48.3,12.8z M30,5H19c-1,0-1.7,0.8-1.7,1.8v37.7c0,1,0.8,1.8,1.7,1.8h11c1,0,1.7-0.8,1.7-1.8V6.8
			C31.7,5.8,30.9,5,30,5z M12.7,28.3h-11c-1,0-1.7,0.8-1.7,1.8v14.4c0,1,0.8,1.8,1.7,1.8h11c1,0,1.7-0.8,1.7-1.8V30.1
			C14.4,29.1,13.6,28.3,12.7,28.3z"/>
	</g>
</g>
</svg>
