<?xml version="1.0" encoding="utf-8"?>
<!-- Generator: Adobe Illustrator 21.0.0, SVG Export Plug-In . SVG Version: 6.00 Build 0)  -->
<svg version="1.1" xmlns="http://www.w3.org/2000/svg" xmlns:xlink="http://www.w3.org/1999/xlink" x="0px" y="0px"
	 viewBox="0 0 200 200" style="enable-background:new 0 0 200 200;" xml:space="preserve">
<style type="text/css">
	.st0{display:none;}
	.st1{display:inline;fill:#A36666;}
	.st2{fill:#A0A0A0;}
	.st3{fill:#EFEFEF;}
	.st4{fill:#E2E3E4;}
	.st5{fill:#FFFFFF;}
	.st6{fill:#D8D8D8;}
	.st7{fill:#5D564A;}
	.st8{fill:#443D31;}
	.st9{fill:#202E3A;}
</style>
<g id="bg" class="st0">
	<rect x="-8.6" y="-18.5" class="st1" width="216.3" height="259.8"/>
</g>
<g id="Layer_3">
	<g>
		<path class="st2" d="M100.2,198.6c-47.3,0-85.7-38.4-85.7-85.7c0-23.2,9.1-44.9,25.6-61.1l-1.1-1.3c-0.3,0.1-0.7,0.1-1,0.1
			c-1.3,0-2.5-0.6-3.3-1.5l-1.3-1.6c-2,0-3.9-0.9-5.1-2.4c-2.4-2.8-2-7.1,0.8-9.5l7.3-6.2c1.2-1,2.7-1.6,4.3-1.6
			c2,0,3.9,0.9,5.2,2.4c1.3,1.5,1.8,3.5,1.5,5.5l1.3,1.6c0.7,0.9,1.1,2,1,3.2c0,0.5-0.2,0.9-0.3,1.3l1,1.2
			C61.7,35,74.9,29.8,88.7,28V16.7h-0.5c-3.7,0-6.7-3-6.7-6.7V7.6c0-3.7,3-6.7,6.7-6.7h23.9c3.7,0,6.7,3,6.7,6.7V10
			c0,3.7-3,6.7-6.7,6.7h-0.5V28c13.8,1.9,26.9,7.1,38.3,15.1l1-1.2c-0.2-0.4-0.3-0.9-0.3-1.3c-0.1-1.2,0.3-2.3,1-3.2l1.3-1.6
			c-0.3-1.9,0.2-3.9,1.5-5.5c1.3-1.5,3.2-2.4,5.2-2.4c1.6,0,3.1,0.6,4.3,1.6l7.3,6.2c1.4,1.2,2.2,2.8,2.4,4.6
			c0.2,1.8-0.4,3.5-1.5,4.9c-1.3,1.5-3.1,2.4-5.1,2.4l-1.3,1.6c-0.8,1-2,1.5-3.3,1.5c-0.3,0-0.7,0-1-0.1l-1.1,1.3
			c16.6,16.2,25.6,37.9,25.6,61.1C185.9,160.2,147.4,198.6,100.2,198.6z"/>
	</g>
</g>
<g id="Icon">
	<g>
		<g>
			
				<rect x="148.6" y="37.5" transform="matrix(0.6428 -0.766 0.766 0.6428 24.5297 137.2337)" class="st3" width="21.5" height="9.6"/>
			
				<rect x="150.5" y="41.5" transform="matrix(0.6428 -0.7661 0.7661 0.6428 24.0079 139.1904)" class="st4" width="21.5" height="4.8"/>
			<path class="st5" d="M170.6,43.9c1.7-2,1.4-5-0.6-6.7l-7.3-6.2c-2-1.7-5-1.4-6.7,0.6c-1.1,1.4-1.4,3.1-0.8,4.7l-2,2.3
				c-0.9,1-0.7,2.5,0.3,3.4l7.3,6.2c1,0.8,2.5,0.7,3.4-0.3l2-2.3C167.7,45.8,169.5,45.2,170.6,43.9z"/>
			<path class="st6" d="M170,37.1l-3.7-3.1l-9.2,11l3.7,3.1c1,0.8,2.5,0.7,3.4-0.3l2-2.3c1.6,0.3,3.3-0.3,4.5-1.6
				C172.3,41.9,172,38.8,170,37.1z"/>
		</g>
		<g>
			<rect x="36.2" y="31.5" transform="matrix(0.766 -0.6428 0.6428 0.766 -17.616 36.236)" class="st3" width="9.6" height="21.5"/>
			<rect x="40.4" y="30" transform="matrix(0.766 -0.6428 0.6428 0.766 -16.198 37.0506)" class="st4" width="4.8" height="21.5"/>
			<path class="st5" d="M44.5,31.6c-1.7-2-4.7-2.3-6.7-0.6l-7.3,6.2c-2,1.7-2.3,4.7-0.6,6.7c1.1,1.4,2.9,1.9,4.5,1.6l2,2.3
				c0.8,1,2.4,1.1,3.4,0.3l7.3-6.2c1-0.8,1.1-2.4,0.3-3.4l-2-2.3C45.8,34.7,45.6,32.9,44.5,31.6z"/>
			<path class="st6" d="M37.7,31L34,34.1l9.2,11l3.7-3.1c1-0.8,1.1-2.4,0.3-3.4l-2-2.3c0.6-1.6,0.3-3.3-0.8-4.7
				C42.8,29.6,39.7,29.3,37.7,31z"/>
		</g>
		<circle class="st5" cx="100.2" cy="112.9" r="83.8"/>
		<circle class="st7" cx="100.2" cy="112.9" r="74.2"/>
		<circle class="st3" cx="100.2" cy="112.9" r="71.8"/>
		<path class="st4" d="M33.2,120.1c0-41,33.2-74.2,74.2-74.2c12.3,0,24,3,34.2,8.4c-11.7-8.3-26-13.2-41.4-13.2
			c-39.7,0-71.8,32.1-71.8,71.8c0,15.4,4.9,29.7,13.2,41.4C36.2,144.1,33.2,132.4,33.2,120.1z"/>
		<g>
			<path class="st7" d="M100.2,53.1c1.3,0,2.4-1.1,2.4-2.4v-9.5c-0.8,0-1.6-0.1-2.4-0.1c-0.8,0-1.6,0-2.4,0.1v9.5
				C97.8,52,98.9,53.1,100.2,53.1z"/>
			<path class="st7" d="M65.6,55.5c0.2,0.4,0.6,0.6,1,0.6c0.2,0,0.4-0.1,0.6-0.2c0.6-0.3,0.8-1.1,0.4-1.6l-2.4-4.1
				c-0.7,0.4-1.4,0.8-2.1,1.2L65.6,55.5z"/>
			<path class="st7" d="M65.3,175.7l2.4-4.1c0.3-0.6,0.1-1.3-0.4-1.6c-0.6-0.3-1.3-0.1-1.6,0.4l-2.4,4.1
				C63.9,174.9,64.6,175.3,65.3,175.7z"/>
			<path class="st7" d="M158.8,145.4c-0.6-0.3-1.3-0.1-1.6,0.4c-0.3,0.6-0.1,1.3,0.4,1.6l4.1,2.4c0.4-0.7,0.8-1.4,1.2-2.1
				L158.8,145.4z"/>
			<path class="st7" d="M171.9,110.5h-9.5c-1.3,0-2.4,1.1-2.4,2.4c0,1.3,1.1,2.4,2.4,2.4h9.5c0-0.8,0.1-1.6,0.1-2.4
				S171.9,111.3,171.9,110.5z"/>
			<path class="st7" d="M157.2,80c0.2,0.4,0.6,0.6,1,0.6c0.2,0,0.4-0.1,0.6-0.2L163,78c-0.4-0.7-0.8-1.4-1.2-2.1l-4.1,2.4
				C157.1,78.7,156.9,79.4,157.2,80z"/>
			<path class="st7" d="M135,50.1l-2.4,4.1c-0.3,0.6-0.1,1.3,0.4,1.6c0.2,0.1,0.4,0.2,0.6,0.2c0.4,0,0.8-0.2,1-0.6l2.4-4.1
				C136.4,50.9,135.7,50.5,135,50.1z"/>
			<path class="st7" d="M42.8,147.4c0.6-0.3,0.8-1.1,0.4-1.6c-0.3-0.6-1.1-0.8-1.6-0.4l-4.1,2.4c0.4,0.7,0.8,1.4,1.2,2.1L42.8,147.4
				z"/>
			<path class="st7" d="M40.4,112.9c0-1.3-1.1-2.4-2.4-2.4h-9.5c0,0.8-0.1,1.6-0.1,2.4s0,1.6,0.1,2.4H38
				C39.3,115.3,40.4,114.2,40.4,112.9z"/>
			<path class="st7" d="M102.6,184.6v-9.5c0-1.3-1.1-2.4-2.4-2.4c-1.3,0-2.4,1.1-2.4,2.4v9.5c0.8,0,1.6,0.1,2.4,0.1
				C101,184.7,101.8,184.7,102.6,184.6z"/>
			<path class="st7" d="M134.7,170.3c-0.3-0.6-1.1-0.8-1.6-0.4c-0.6,0.3-0.8,1.1-0.4,1.6l2.4,4.1c0.7-0.4,1.4-0.8,2.1-1.2
				L134.7,170.3z"/>
			<path class="st7" d="M41.6,80.4c0.2,0.1,0.4,0.2,0.6,0.2c0.4,0,0.8-0.2,1-0.6c0.3-0.6,0.1-1.3-0.4-1.6L38.6,76
				c-0.4,0.7-0.8,1.4-1.2,2.1L41.6,80.4z"/>
		</g>
		<path class="st8" d="M41.2,153.6c-0.9-1.2-1.7-2.5-2.5-3.8l0.5-0.3c-0.3-0.7-0.6-1.5-0.9-2.2l-0.8,0.5c-5.4-9.6-8.6-20.7-9-32.4
			h4.8c0.1-1.6,0.3-3.2,0.5-4.8h-5.2c0.4-11.7,3.6-22.8,9-32.4l4,2.3c0.2,0.1,0.4,0.2,0.6,0.2c0.4,0,0.8-0.2,1-0.6
			c0.3-0.6,0.1-1.3-0.4-1.6l-4-2.3c6.1-10.1,14.5-18.5,24.6-24.6l2.3,4c0.2,0.4,0.6,0.6,1,0.6c0.2,0,0.4-0.1,0.6-0.2
			c0.6-0.3,0.8-1.1,0.4-1.6l-2.3-4c9.7-5.4,20.7-8.6,32.4-9v5.2c1.6-0.2,3.2-0.4,4.8-0.5v-4.8c11.7,0.4,22.8,3.6,32.4,9l-0.5,0.8
			c0.7,0.3,1.5,0.6,2.2,0.9l0.3-0.5c1.3,0.8,2.6,1.6,3.8,2.5c5.5,2.8,10.6,6.3,15.2,10.3c-13.6-15.6-33.6-25.5-55.9-25.5
			c-41,0-74.2,33.2-74.2,74.2c0,22.3,9.9,42.3,25.5,55.9C47.4,164.2,44,159.1,41.2,153.6z"/>
		<path class="st3" d="M100.2,29.1c3.2,0,6.4,0.2,9.6,0.6V14.8H90.6v14.9C93.8,29.3,97,29.1,100.2,29.1z"/>
		<path class="st4" d="M100.2,29.1c3.2,0,6.4,0.2,9.6,0.6V14.8h-9.6V29.1z"/>
		<rect x="90.6" y="14.8" class="st6" width="19.1" height="2.4"/>
		<path class="st5" d="M112.2,14.8H88.2c-2.6,0-4.8-2.1-4.8-4.8V7.6c0-2.6,2.1-4.8,4.8-4.8h23.9c2.6,0,4.8,2.1,4.8,4.8V10
			C116.9,12.6,114.8,14.8,112.2,14.8z"/>
		<path class="st6" d="M112.2,2.8h-12v12h12c2.6,0,4.8-2.1,4.8-4.8V7.6C116.9,5,114.8,2.8,112.2,2.8z"/>
		<path class="st6" d="M111.6,118.3c0.7-2.1,0.7-4.5-0.2-6.7l12.1-34l-22.5,28.2c-11.1,1.8-10.5,17.8,0.6,18.9L111.6,118.3z"/>
		<g>
			<polygon class="st9" points="93.9,109.4 121.2,75.3 106.5,116.4 			"/>
			<path class="st6" d="M109.2,115.9c-0.7,2-1.9,3.8-3.8,5c-1.9,1.2-4,1.7-6.1,1.5l2.2,2.4c2.2,0.3,4.4-0.2,6.4-1.4
				c1.4-0.9,2.4-2.1,3.1-3.5L109.2,115.9z"/>
			
				<ellipse transform="matrix(0.8383 -0.5453 0.5453 0.8383 -45.3539 72.8889)" class="st9" cx="100.2" cy="112.9" rx="9.6" ry="9.6"/>
			
				<ellipse transform="matrix(0.8381 -0.5455 0.5455 0.8381 -45.3636 72.9243)" class="st6" cx="100.2" cy="112.9" rx="4.8" ry="4.8"/>
		</g>
	</g>
</g>
</svg>
